<svg xmlns="http://www.w3.org/2000/svg" width="1040" height="460" viewBox="0 0 1040 460">
  <rect width="100%" height="100%" fill="#ffffff" />
  <text x="72" y="28" font-family="Arial, sans-serif" font-size="20" font-weight="700" fill="#111827">Go OpenFaaS Redis PGO latency</text>
  <text x="72" y="46" font-family="Arial, sans-serif" font-size="12" fill="#475569">Gateway request latency, 80 measured requests per build</text>
  <g font-family="Arial, sans-serif">
    <line x1="72" y1="388.0" x2="1008" y2="388.0" stroke="#e5e7eb" /><text x="62" y="392.0" text-anchor="end" font-size="12" fill="#475569">0</text><line x1="72" y1="321.2" x2="1008" y2="321.2" stroke="#e5e7eb" /><text x="62" y="325.2" text-anchor="end" font-size="12" fill="#475569">85</text><line x1="72" y1="254.4" x2="1008" y2="254.4" stroke="#e5e7eb" /><text x="62" y="258.4" text-anchor="end" font-size="12" fill="#475569">170</text><line x1="72" y1="187.6" x2="1008" y2="187.6" stroke="#e5e7eb" /><text x="62" y="191.6" text-anchor="end" font-size="12" fill="#475569">255</text><line x1="72" y1="120.8" x2="1008" y2="120.8" stroke="#e5e7eb" /><text x="62" y="124.8" text-anchor="end" font-size="12" fill="#475569">340</text><line x1="72" y1="54.0" x2="1008" y2="54.0" stroke="#e5e7eb" /><text x="62" y="58.0" text-anchor="end" font-size="12" fill="#475569">425</text>
    <line x1="72" y1="388" x2="1008" y2="388" stroke="#94a3b8" />
    <line x1="72" y1="54" x2="72" y2="388" stroke="#94a3b8" />
    <polyline points="72.0,301.6 83.8,298.4 95.7,285.9 107.5,271.1 119.4,294.6 131.2,293.4 143.1,301.2 154.9,299.3 166.8,296.2 178.6,301.5 190.5,302.4 202.3,302.1 214.2,294.2 226.0,259.5 237.9,285.4 249.7,236.4 261.6,267.6 273.4,285.0 285.3,290.2 297.1,301.4 309.0,299.5 320.8,299.5 332.7,300.7 344.5,302.5 356.4,301.7 368.2,302.0 380.1,295.9 391.9,283.7 403.7,299.9 415.6,301.2 427.4,298.1 439.3,300.0 451.1,301.3 463.0,302.4 474.8,301.2 486.7,301.4 498.5,300.2 510.4,301.9 522.2,300.2 534.1,301.4 545.9,301.2 557.8,300.9 569.6,302.9 581.5,302.3 593.3,301.6 605.2,296.2 617.0,301.4 628.9,300.7 640.7,301.1 652.6,303.0 664.4,302.1 676.3,302.3 688.1,297.8 699.9,301.5 711.8,301.8 723.6,302.3 735.5,301.9 747.3,302.6 759.2,302.2 771.0,301.7 782.9,301.1 794.7,302.0 806.6,302.3 818.4,301.9 830.3,302.3 842.1,302.2 854.0,302.1 865.8,302.7 877.7,302.7 889.5,302.0 901.4,299.1 913.2,302.2 925.1,301.6 936.9,302.7 948.8,301.7 960.6,302.4 972.5,301.5 984.3,301.3 996.2,300.2 1008.0,302.2" fill="none" stroke="#334155" stroke-width="2.4" opacity="0.86" /><polyline points="72.0,288.9 83.8,68.3 95.7,235.9 107.5,264.0 119.4,272.4 131.2,278.6 143.1,292.4 154.9,300.8 166.8,298.5 178.6,305.7 190.5,304.3 202.3,297.9 214.2,305.0 226.0,305.6 237.9,307.7 249.7,305.7 261.6,305.7 273.4,306.2 285.3,307.4 297.1,307.1 309.0,305.9 320.8,300.7 332.7,303.9 344.5,305.5 356.4,306.6 368.2,304.3 380.1,305.7 391.9,305.9 403.7,307.6 415.6,307.1 427.4,307.7 439.3,307.3 451.1,308.2 463.0,307.7 474.8,308.0 486.7,307.3 498.5,307.4 510.4,307.2 522.2,307.6 534.1,307.4 545.9,307.6 557.8,306.9 569.6,307.9 581.5,308.2 593.3,308.3 605.2,308.3 617.0,307.2 628.9,258.8 640.7,297.8 652.6,304.7 664.4,305.6 676.3,307.0 688.1,306.1 699.9,306.3 711.8,307.5 723.6,307.7 735.5,306.2 747.3,306.5 759.2,307.7 771.0,306.0 782.9,307.7 794.7,307.1 806.6,307.1 818.4,301.3 830.3,302.0 842.1,306.6 854.0,306.6 865.8,308.3 877.7,306.8 889.5,307.0 901.4,302.4 913.2,306.2 925.1,307.5 936.9,290.5 948.8,288.5 960.6,305.1 972.5,303.7 984.3,306.6 996.2,307.5 1008.0,304.9" fill="none" stroke="#0f766e" stroke-width="2.4" opacity="0.86" /><polyline points="72.0,307.0 83.8,307.9 95.7,308.0 107.5,305.8 119.4,305.4 131.2,307.8 143.1,307.8 154.9,307.2 166.8,306.1 178.6,307.6 190.5,306.7 202.3,306.8 214.2,307.0 226.0,304.8 237.9,307.4 249.7,308.1 261.6,307.4 273.4,305.6 285.3,287.0 297.1,302.1 309.0,293.7 320.8,293.8 332.7,294.7 344.5,301.2 356.4,304.9 368.2,305.2 380.1,305.5 391.9,305.2 403.7,305.1 415.6,305.2 427.4,306.2 439.3,306.9 451.1,298.6 463.0,304.4 474.8,300.1 486.7,303.1 498.5,304.4 510.4,305.6 522.2,292.8 534.1,306.1 545.9,305.9 557.8,297.6 569.6,304.2 581.5,305.8 593.3,305.2 605.2,306.1 617.0,306.9 628.9,307.6 640.7,306.4 652.6,306.8 664.4,306.2 676.3,303.5 688.1,299.2 699.9,305.5 711.8,306.9 723.6,304.0 735.5,304.0 747.3,302.2 759.2,293.8 771.0,304.1 782.9,305.7 794.7,303.8 806.6,291.5 818.4,304.2 830.3,306.8 842.1,308.0 854.0,307.0 865.8,306.1 877.7,305.6 889.5,307.1 901.4,306.8 913.2,304.9 925.1,306.7 936.9,307.1 948.8,307.1 960.6,303.9 972.5,305.7 984.3,301.2 996.2,297.8 1008.0,305.3" fill="none" stroke="#b45309" stroke-width="2.4" opacity="0.86" />
    <text x="540.0" y="442" text-anchor="middle" font-size="13" fill="#334155">HTTP invocation number</text>
    <text x="18" y="221.0" text-anchor="middle" font-size="13" fill="#334155" transform="rotate(-90 18 221.0)">Latency (ms)</text>
    <rect x="72" y="417" width="13" height="13" fill="#334155" /><text x="90" y="428" font-size="12" fill="#334155">No PGO p50=110.2ms p95=148.8ms</text><rect x="372" y="417" width="13" height="13" fill="#0f766e" /><text x="390" y="428" font-size="12" fill="#334155">PGO, 5 warm profiles p50=104.1ms p95=157.8ms</text><rect x="672" y="417" width="13" height="13" fill="#b45309" /><text x="690" y="428" font-size="12" fill="#334155">PGO, 10 warm profiles p50=104.9ms p95=120.0ms</text>
  </g>
</svg>
