<svg xmlns="http://www.w3.org/2000/svg" width="1100" height="560" viewBox="0 0 1100 560">
  <rect width="100%" height="100%" fill="#ffffff" />
  <text x="76" y="26" font-family="Arial, sans-serif" font-size="19" font-weight="700" fill="#111827">Invocation latency curves: JVM HTTP vs non-JVM profile-cache prototypes</text>
  <text x="76" y="46" font-family="Arial, sans-serif" font-size="12" fill="#4b5563">Java is the OpenFaaS/George JVM HTTP CSV; Go and .NET are local prototype handler loops after profile/AOT artifact import.</text>
  <g font-family="Arial, sans-serif">
    <line x1="76" y1="492.0" x2="840" y2="492.0" stroke="#e5e7eb" /><text x="66" y="496.0" text-anchor="end" font-size="12" fill="#4b5563">0</text><line x1="76" y1="405.2" x2="840" y2="405.2" stroke="#e5e7eb" /><text x="66" y="409.2" text-anchor="end" font-size="12" fill="#4b5563">12</text><line x1="76" y1="318.4" x2="840" y2="318.4" stroke="#e5e7eb" /><text x="66" y="322.4" text-anchor="end" font-size="12" fill="#4b5563">24</text><line x1="76" y1="231.6" x2="840" y2="231.6" stroke="#e5e7eb" /><text x="66" y="235.6" text-anchor="end" font-size="12" fill="#4b5563">36</text><line x1="76" y1="144.8" x2="840" y2="144.8" stroke="#e5e7eb" /><text x="66" y="148.8" text-anchor="end" font-size="12" fill="#4b5563">48</text><line x1="76" y1="58.0" x2="840" y2="58.0" stroke="#e5e7eb" /><text x="66" y="62.0" text-anchor="end" font-size="12" fill="#4b5563">60</text>
    <line x1="76" y1="492" x2="840" y2="492" stroke="#9ca3af" />
    <line x1="76" y1="58" x2="76" y2="492" stroke="#9ca3af" />
    <polyline points="76.0,146.2 130.6,110.5 185.1,193.4 239.7,202.6 294.3,224.6 348.9,203.5 403.4,243.2 458.0,212.9 512.6,193.6 567.1,231.2 621.7,236.4 676.3,206.3 730.9,238.2 785.4,192.6 840.0,253.0" fill="none" stroke="#2563eb" stroke-width="2.4" /><circle cx="76.0" cy="146.2" r="3" fill="#2563eb" /><circle cx="130.6" cy="110.5" r="3" fill="#2563eb" /><circle cx="185.1" cy="193.4" r="3" fill="#2563eb" /><circle cx="239.7" cy="202.6" r="3" fill="#2563eb" /><circle cx="294.3" cy="224.6" r="3" fill="#2563eb" /><circle cx="348.9" cy="203.5" r="3" fill="#2563eb" /><circle cx="403.4" cy="243.2" r="3" fill="#2563eb" /><circle cx="458.0" cy="212.9" r="3" fill="#2563eb" /><circle cx="512.6" cy="193.6" r="3" fill="#2563eb" /><circle cx="567.1" cy="231.2" r="3" fill="#2563eb" /><circle cx="621.7" cy="236.4" r="3" fill="#2563eb" /><circle cx="676.3" cy="206.3" r="3" fill="#2563eb" /><circle cx="730.9" cy="238.2" r="3" fill="#2563eb" /><circle cx="785.4" cy="192.6" r="3" fill="#2563eb" /><circle cx="840.0" cy="253.0" r="3" fill="#2563eb" /><polyline points="76.0,409.8 130.6,410.9 185.1,410.5 239.7,410.3 294.3,410.7 348.9,410.8" fill="none" stroke="#059669" stroke-width="2.4" /><circle cx="76.0" cy="409.8" r="3" fill="#059669" /><circle cx="130.6" cy="410.9" r="3" fill="#059669" /><circle cx="185.1" cy="410.5" r="3" fill="#059669" /><circle cx="239.7" cy="410.3" r="3" fill="#059669" /><circle cx="294.3" cy="410.7" r="3" fill="#059669" /><circle cx="348.9" cy="410.8" r="3" fill="#059669" /><polyline points="76.0,217.2 130.6,410.6 185.1,411.3 239.7,412.8 294.3,413.0 348.9,413.1" fill="none" stroke="#d97706" stroke-width="2.4" /><circle cx="76.0" cy="217.2" r="3" fill="#d97706" /><circle cx="130.6" cy="410.6" r="3" fill="#d97706" /><circle cx="185.1" cy="411.3" r="3" fill="#d97706" /><circle cx="239.7" cy="412.8" r="3" fill="#d97706" /><circle cx="294.3" cy="413.0" r="3" fill="#d97706" /><circle cx="348.9" cy="413.1" r="3" fill="#d97706" /><polyline points="76.0,363.1 130.6,362.9 185.1,362.9 239.7,360.2 294.3,359.9 348.9,353.6" fill="none" stroke="#7c3aed" stroke-width="2.4" /><circle cx="76.0" cy="363.1" r="3" fill="#7c3aed" /><circle cx="130.6" cy="362.9" r="3" fill="#7c3aed" /><circle cx="185.1" cy="362.9" r="3" fill="#7c3aed" /><circle cx="239.7" cy="360.2" r="3" fill="#7c3aed" /><circle cx="294.3" cy="359.9" r="3" fill="#7c3aed" /><circle cx="348.9" cy="353.6" r="3" fill="#7c3aed" /><polyline points="76.0,408.8 130.6,408.4 185.1,408.2 239.7,408.0 294.3,407.9 348.9,404.8" fill="none" stroke="#dc2626" stroke-width="2.4" /><circle cx="76.0" cy="408.8" r="3" fill="#dc2626" /><circle cx="130.6" cy="408.4" r="3" fill="#dc2626" /><circle cx="185.1" cy="408.2" r="3" fill="#dc2626" /><circle cx="239.7" cy="408.0" r="3" fill="#dc2626" /><circle cx="294.3" cy="407.9" r="3" fill="#dc2626" /><circle cx="348.9" cy="404.8" r="3" fill="#dc2626" />
    <line x1="868" y1="58" x2="892" y2="58" stroke="#2563eb" stroke-width="3" /><text x="900" y="62" font-size="12" fill="#111827">Java/OpenFaaS George JVM</text><line x1="868" y1="80" x2="892" y2="80" stroke="#059669" stroke-width="3" /><text x="900" y="84" font-size="12" fill="#111827">Go baseline hot</text><line x1="868" y1="102" x2="892" y2="102" stroke="#d97706" stroke-width="3" /><text x="900" y="106" font-size="12" fill="#111827">Go PGO hot</text><line x1="868" y1="124" x2="892" y2="124" stroke="#7c3aed" stroke-width="3" /><text x="900" y="128" font-size="12" fill="#111827">.NET IL hot</text><line x1="868" y1="146" x2="892" y2="146" stroke="#dc2626" stroke-width="3" /><text x="900" y="150" font-size="12" fill="#111827">.NET ReadyToRun hot</text>
    <text x="458.0" y="540" text-anchor="middle" font-size="13" fill="#374151">Invocation number within run</text>
    <text x="20" y="275.0" text-anchor="middle" font-size="13" fill="#374151" transform="rotate(-90 20 275.0)">Latency (ms)</text>
  </g>
</svg>
