<svg xmlns="http://www.w3.org/2000/svg" width="1180" height="560" viewBox="0 0 1180 560">
  <rect width="100%" height="100%" fill="#ffffff" />
  <text x="76" y="26" font-family="Arial, sans-serif" font-size="19" font-weight="700" fill="#111827">Latency percentile comparison</text>
  <text x="76" y="46" font-family="Arial, sans-serif" font-size="12" fill="#4b5563">p50 and p95 across the Java/OpenFaaS JVM HTTP run and non-JVM profile-cache prototypes.</text>
  <g font-family="Arial, sans-serif">
    <line x1="76" y1="420.0" x2="1156" y2="420.0" stroke="#e5e7eb" /><text x="66" y="424.0" text-anchor="end" font-size="12" fill="#4b5563">0</text><line x1="76" y1="347.6" x2="1156" y2="347.6" stroke="#e5e7eb" /><text x="66" y="351.6" text-anchor="end" font-size="12" fill="#4b5563">12</text><line x1="76" y1="275.2" x2="1156" y2="275.2" stroke="#e5e7eb" /><text x="66" y="279.2" text-anchor="end" font-size="12" fill="#4b5563">24</text><line x1="76" y1="202.8" x2="1156" y2="202.8" stroke="#e5e7eb" /><text x="66" y="206.8" text-anchor="end" font-size="12" fill="#4b5563">36</text><line x1="76" y1="130.4" x2="1156" y2="130.4" stroke="#e5e7eb" /><text x="66" y="134.4" text-anchor="end" font-size="12" fill="#4b5563">48</text><line x1="76" y1="58.0" x2="1156" y2="58.0" stroke="#e5e7eb" /><text x="66" y="62.0" text-anchor="end" font-size="12" fill="#4b5563">60</text>
    <line x1="76" y1="420" x2="1156" y2="420" stroke="#9ca3af" />
    <line x1="76" y1="58" x2="76" y2="420" stroke="#9ca3af" />
    <rect x="99.4" y="181.7" width="33.6" height="238.3" fill="#2563eb" rx="2" /><text x="116.2" y="176.7" text-anchor="middle" font-size="10" fill="#2563eb">39.5</text><rect x="139.0" y="101.8" width="33.6" height="318.2" fill="#dc2626" rx="2" /><text x="155.8" y="96.8" text-anchor="middle" font-size="10" fill="#dc2626">52.7</text><text x="136.0" y="462" text-anchor="end" font-size="11" fill="#111827" transform="rotate(-32 136.0 462)">Java/OpenFaaS George JVM</text><rect x="219.4" y="352.1" width="33.6" height="67.9" fill="#2563eb" rx="2" /><text x="236.2" y="347.1" text-anchor="middle" font-size="10" fill="#2563eb">11.3</text><rect x="259.0" y="351.4" width="33.6" height="68.6" fill="#dc2626" rx="2" /><text x="275.8" y="346.4" text-anchor="middle" font-size="10" fill="#dc2626">11.4</text><text x="256.0" y="462" text-anchor="end" font-size="11" fill="#111827" transform="rotate(-32 256.0 462)">Go baseline hot</text><rect x="339.4" y="352.7" width="33.6" height="67.3" fill="#2563eb" rx="2" /><text x="356.2" y="347.7" text-anchor="middle" font-size="10" fill="#2563eb">11.2</text><rect x="379.0" y="190.8" width="33.6" height="229.2" fill="#dc2626" rx="2" /><text x="395.8" y="185.8" text-anchor="middle" font-size="10" fill="#dc2626">38.0</text><text x="376.0" y="462" text-anchor="end" font-size="11" fill="#111827" transform="rotate(-32 376.0 462)">Go PGO hot</text><rect x="459.4" y="310.1" width="33.6" height="109.9" fill="#2563eb" rx="2" /><text x="476.2" y="305.1" text-anchor="middle" font-size="10" fill="#2563eb">18.2</text><rect x="499.0" y="304.6" width="33.6" height="115.4" fill="#dc2626" rx="2" /><text x="515.8" y="299.6" text-anchor="middle" font-size="10" fill="#dc2626">19.1</text><text x="496.0" y="462" text-anchor="end" font-size="11" fill="#111827" transform="rotate(-32 496.0 462)">.NET IL hot</text><rect x="579.4" y="349.9" width="33.6" height="70.1" fill="#2563eb" rx="2" /><text x="596.2" y="344.9" text-anchor="middle" font-size="10" fill="#2563eb">11.6</text><rect x="619.0" y="347.3" width="33.6" height="72.7" fill="#dc2626" rx="2" /><text x="635.8" y="342.3" text-anchor="middle" font-size="10" fill="#dc2626">12.1</text><text x="616.0" y="462" text-anchor="end" font-size="11" fill="#111827" transform="rotate(-32 616.0 462)">.NET ReadyToRun hot</text><rect x="699.4" y="308.6" width="33.6" height="111.4" fill="#2563eb" rx="2" /><text x="716.2" y="303.6" text-anchor="middle" font-size="10" fill="#2563eb">18.5</text><rect x="739.0" y="305.9" width="33.6" height="114.1" fill="#dc2626" rx="2" /><text x="755.8" y="300.9" text-anchor="middle" font-size="10" fill="#dc2626">18.9</text><text x="736.0" y="462" text-anchor="end" font-size="11" fill="#111827" transform="rotate(-32 736.0 462)">Go baseline mixed</text><rect x="819.4" y="310.8" width="33.6" height="109.2" fill="#2563eb" rx="2" /><text x="836.2" y="305.8" text-anchor="middle" font-size="10" fill="#2563eb">18.1</text><rect x="859.0" y="310.4" width="33.6" height="109.6" fill="#dc2626" rx="2" /><text x="875.8" y="305.4" text-anchor="middle" font-size="10" fill="#dc2626">18.2</text><text x="856.0" y="462" text-anchor="end" font-size="11" fill="#111827" transform="rotate(-32 856.0 462)">Go PGO mixed</text><rect x="939.4" y="117.0" width="33.6" height="303.0" fill="#2563eb" rx="2" /><text x="956.2" y="112.0" text-anchor="middle" font-size="10" fill="#2563eb">50.2</text><rect x="979.0" y="105.0" width="33.6" height="315.0" fill="#dc2626" rx="2" /><text x="995.8" y="100.0" text-anchor="middle" font-size="10" fill="#dc2626">52.2</text><text x="976.0" y="462" text-anchor="end" font-size="11" fill="#111827" transform="rotate(-32 976.0 462)">.NET IL mixed</text><rect x="1059.4" y="304.4" width="33.6" height="115.6" fill="#2563eb" rx="2" /><text x="1076.2" y="299.4" text-anchor="middle" font-size="10" fill="#2563eb">19.2</text><rect x="1099.0" y="303.6" width="33.6" height="116.4" fill="#dc2626" rx="2" /><text x="1115.8" y="298.6" text-anchor="middle" font-size="10" fill="#dc2626">19.3</text><text x="1096.0" y="462" text-anchor="end" font-size="11" fill="#111827" transform="rotate(-32 1096.0 462)">.NET ReadyToRun mixed</text>
    <rect x="990" y="18" width="12" height="12" fill="#2563eb" /><text x="1008" y="29" font-size="12" fill="#111827">p50</text>
    <rect x="1050" y="18" width="12" height="12" fill="#dc2626" /><text x="1068" y="29" font-size="12" fill="#111827">p95</text>
    <text x="20" y="239.0" text-anchor="middle" font-size="13" fill="#374151" transform="rotate(-90 20 239.0)">Latency (ms)</text>
  </g>
</svg>
